<mxfile host="app.diagrams.net" modified="2023-05-11T10:37:48.845Z" agent="Mozilla/5.0 (Windows NT 10.0; Win64; x64) AppleWebKit/537.36 (KHTML, like Gecko) Chrome/112.0.0.0 Safari/537.36" etag="SXubdS3VvKB7rCRa-vWl" version="21.2.9" type="device">
  <diagram name="페이지-1" id="BBTczfYqQ2Q6w83ZgwtW">
    <mxGraphModel dx="1434" dy="756" grid="1" gridSize="10" guides="1" tooltips="1" connect="1" arrows="1" fold="1" page="1" pageScale="1" pageWidth="827" pageHeight="1169" math="0" shadow="0">
      <root>
        <mxCell id="0" />
        <mxCell id="1" parent="0" />
        <mxCell id="n6jUhrlrwF7VxkI7xztM-73" value="" style="rounded=0;whiteSpace=wrap;html=1;" parent="1" vertex="1">
          <mxGeometry x="190" y="60" width="400" height="370" as="geometry" />
        </mxCell>
        <mxCell id="n6jUhrlrwF7VxkI7xztM-63" value="" style="group" parent="1" vertex="1" connectable="0">
          <mxGeometry x="58" y="140" width="720" height="340" as="geometry" />
        </mxCell>
        <mxCell id="n6jUhrlrwF7VxkI7xztM-37" value="일반 회원" style="shape=umlActor;verticalLabelPosition=bottom;verticalAlign=top;html=1;" parent="n6jUhrlrwF7VxkI7xztM-63" vertex="1">
          <mxGeometry y="60" width="40" height="70" as="geometry" />
        </mxCell>
        <mxCell id="n6jUhrlrwF7VxkI7xztM-41" value="" style="group" parent="n6jUhrlrwF7VxkI7xztM-63" vertex="1" connectable="0">
          <mxGeometry x="54" y="60" width="250" height="70" as="geometry" />
        </mxCell>
        <mxCell id="n6jUhrlrwF7VxkI7xztM-38" value="채용 정보 조회" style="ellipse;whiteSpace=wrap;html=1;" parent="n6jUhrlrwF7VxkI7xztM-41" vertex="1">
          <mxGeometry x="110" width="140" height="70" as="geometry" />
        </mxCell>
        <mxCell id="n6jUhrlrwF7VxkI7xztM-47" value="" style="group" parent="n6jUhrlrwF7VxkI7xztM-63" vertex="1" connectable="0">
          <mxGeometry x="54" y="160" width="250" height="70" as="geometry" />
        </mxCell>
        <mxCell id="n6jUhrlrwF7VxkI7xztM-48" value="지원" style="ellipse;whiteSpace=wrap;html=1;" parent="n6jUhrlrwF7VxkI7xztM-47" vertex="1">
          <mxGeometry x="110" width="140" height="70" as="geometry" />
        </mxCell>
        <mxCell id="n6jUhrlrwF7VxkI7xztM-50" value="상세 채용 정보 리스트" style="ellipse;whiteSpace=wrap;html=1;" parent="n6jUhrlrwF7VxkI7xztM-63" vertex="1">
          <mxGeometry x="380" y="120" width="140" height="70" as="geometry" />
        </mxCell>
        <mxCell id="n6jUhrlrwF7VxkI7xztM-52" value="&amp;lt;&amp;lt;Include&amp;gt;&amp;gt;" style="endArrow=open;endSize=12;dashed=1;html=1;rounded=0;exitX=1;exitY=0.5;exitDx=0;exitDy=0;entryX=0.057;entryY=0.714;entryDx=0;entryDy=0;entryPerimeter=0;" parent="n6jUhrlrwF7VxkI7xztM-63" source="n6jUhrlrwF7VxkI7xztM-48" target="n6jUhrlrwF7VxkI7xztM-50" edge="1">
          <mxGeometry x="-0.0152" y="14" width="160" relative="1" as="geometry">
            <mxPoint x="380" y="230" as="sourcePoint" />
            <mxPoint x="304" y="290" as="targetPoint" />
            <mxPoint as="offset" />
          </mxGeometry>
        </mxCell>
        <mxCell id="n6jUhrlrwF7VxkI7xztM-53" value="&amp;lt;&amp;lt;Include&amp;gt;&amp;gt;" style="endArrow=open;endSize=12;dashed=1;html=1;rounded=0;exitX=0.971;exitY=0.714;exitDx=0;exitDy=0;entryX=0.071;entryY=0.286;entryDx=0;entryDy=0;entryPerimeter=0;exitPerimeter=0;" parent="n6jUhrlrwF7VxkI7xztM-63" source="n6jUhrlrwF7VxkI7xztM-38" target="n6jUhrlrwF7VxkI7xztM-50" edge="1">
          <mxGeometry x="0.2009" y="19" width="160" relative="1" as="geometry">
            <mxPoint x="400" y="55" as="sourcePoint" />
            <mxPoint x="324" y="115" as="targetPoint" />
            <mxPoint as="offset" />
          </mxGeometry>
        </mxCell>
        <mxCell id="patPGYM1UZlqjlkls-6O-1" value="" style="endArrow=none;html=1;rounded=0;entryX=0.007;entryY=0.614;entryDx=0;entryDy=0;entryPerimeter=0;exitX=0.5;exitY=0.414;exitDx=0;exitDy=0;exitPerimeter=0;" parent="n6jUhrlrwF7VxkI7xztM-63" source="n6jUhrlrwF7VxkI7xztM-37" target="n6jUhrlrwF7VxkI7xztM-38" edge="1">
          <mxGeometry width="50" height="50" relative="1" as="geometry">
            <mxPoint x="162" y="270" as="sourcePoint" />
            <mxPoint x="212" y="220" as="targetPoint" />
          </mxGeometry>
        </mxCell>
        <mxCell id="patPGYM1UZlqjlkls-6O-3" value="" style="endArrow=none;html=1;rounded=0;entryX=0;entryY=0.5;entryDx=0;entryDy=0;" parent="n6jUhrlrwF7VxkI7xztM-63" target="n6jUhrlrwF7VxkI7xztM-48" edge="1">
          <mxGeometry width="50" height="50" relative="1" as="geometry">
            <mxPoint x="20" y="90" as="sourcePoint" />
            <mxPoint x="175" y="113" as="targetPoint" />
          </mxGeometry>
        </mxCell>
        <mxCell id="n6jUhrlrwF7VxkI7xztM-74" value="채용 정보 관리 시스템" style="text;strokeColor=none;fillColor=none;html=1;fontSize=24;fontStyle=1;verticalAlign=middle;align=center;" parent="1" vertex="1">
          <mxGeometry x="320" y="60" width="260" height="40" as="geometry" />
        </mxCell>
      </root>
    </mxGraphModel>
  </diagram>
</mxfile>
